<svg width="512" height="133" viewBox="0 0 512 133" fill="none" xmlns="http://www.w3.org/2000/svg">
<g clip-path="url(#clip0_5_71)">
<path d="M55.664 101L54.512 89.096V11.4H77.552V101H55.664ZM37.488 102.536C31.4293 102.536 26.224 101.213 21.872 98.568C17.6053 95.9227 14.32 92.0827 12.016 87.048C9.712 82.0133 8.56 75.9973 8.56 69C8.56 61.9173 9.712 55.9013 12.016 50.952C14.32 45.9173 17.6053 42.0773 21.872 39.432C26.224 36.7867 31.4293 35.464 37.488 35.464C42.7787 35.464 47.1307 36.7867 50.544 39.432C54.0427 42.0773 56.6027 45.9173 58.224 50.952C59.9307 55.9013 60.784 61.9173 60.784 69C60.784 75.9973 59.9307 82.0133 58.224 87.048C56.6027 92.0827 54.0427 95.9227 50.544 98.568C47.1307 101.213 42.7787 102.536 37.488 102.536ZM43.632 81.288C45.7653 81.288 47.6427 80.776 49.264 79.752C50.9707 78.6427 52.2933 77.192 53.232 75.4C54.1707 73.5227 54.64 71.3893 54.64 69C54.64 66.6107 54.1707 64.52 53.232 62.728C52.2933 60.8507 50.9707 59.4 49.264 58.376C47.6427 57.352 45.7227 56.84 43.504 56.84C41.456 56.84 39.6213 57.352 38 58.376C36.3787 59.4 35.0987 60.8507 34.16 62.728C33.2213 64.52 32.7093 66.6107 32.624 69C32.7093 71.3893 33.2213 73.5227 34.16 75.4C35.0987 77.192 36.3787 78.6427 38 79.752C39.7067 80.776 41.584 81.288 43.632 81.288ZM121.394 102.536C114.482 102.536 108.338 101.128 102.962 98.312C97.586 95.496 93.362 91.5707 90.29 86.536C87.3033 81.5013 85.81 75.656 85.81 69C85.81 62.344 87.3033 56.4987 90.29 51.464C93.2767 46.4293 97.4153 42.504 102.706 39.688C107.997 36.872 114.098 35.464 121.01 35.464C127.581 35.464 133.341 36.9147 138.29 39.816C143.325 42.632 147.25 46.9413 150.066 52.744C152.967 58.5467 154.418 65.8853 154.418 74.76H106.546L109.362 71.432C109.362 74.1627 109.789 76.552 110.642 78.6C111.495 80.648 112.775 82.2267 114.482 83.336C116.189 84.4453 118.279 85 120.754 85C123.57 85 126.002 84.36 128.05 83.08C130.183 81.7147 131.506 80.0507 132.018 78.088L152.242 84.36C150.706 88.7973 148.231 92.3813 144.818 95.112C141.49 97.7573 137.735 99.6773 133.554 100.872C129.458 101.981 125.405 102.536 121.394 102.536ZM109.49 64.392L107.058 60.68H133.554L131.25 64.392C131.25 61.064 130.695 58.4613 129.586 56.584C128.477 54.7067 127.069 53.384 125.362 52.616C123.741 51.7627 122.077 51.336 120.37 51.336C118.578 51.336 116.829 51.7627 115.122 52.616C113.501 53.384 112.135 54.7067 111.026 56.584C110.002 58.4613 109.49 61.064 109.49 64.392ZM193.894 102.536C186.982 102.536 180.838 101.128 175.462 98.312C170.086 95.496 165.862 91.5707 162.79 86.536C159.803 81.5013 158.31 75.656 158.31 69C158.31 62.344 159.803 56.4987 162.79 51.464C165.777 46.4293 169.915 42.504 175.206 39.688C180.497 36.872 186.598 35.464 193.51 35.464C200.081 35.464 205.841 36.9147 210.79 39.816C215.825 42.632 219.75 46.9413 222.566 52.744C225.467 58.5467 226.918 65.8853 226.918 74.76H179.046L181.862 71.432C181.862 74.1627 182.289 76.552 183.142 78.6C183.995 80.648 185.275 82.2267 186.982 83.336C188.689 84.4453 190.779 85 193.254 85C196.07 85 198.502 84.36 200.55 83.08C202.683 81.7147 204.006 80.0507 204.518 78.088L224.742 84.36C223.206 88.7973 220.731 92.3813 217.318 95.112C213.99 97.7573 210.235 99.6773 206.054 100.872C201.958 101.981 197.905 102.536 193.894 102.536ZM181.99 64.392L179.558 60.68H206.054L203.75 64.392C203.75 61.064 203.195 58.4613 202.086 56.584C200.977 54.7067 199.569 53.384 197.862 52.616C196.241 51.7627 194.577 51.336 192.87 51.336C191.078 51.336 189.329 51.7627 187.622 52.616C186.001 53.384 184.635 54.7067 183.526 56.584C182.502 58.4613 181.99 61.064 181.99 64.392ZM234.65 126.6V37H256.41L257.69 48.776V126.6H234.65ZM274.842 102.536C269.551 102.536 265.157 101.213 261.658 98.568C258.245 95.9227 255.685 92.0827 253.978 87.048C252.357 82.0133 251.546 75.9973 251.546 69C251.546 61.9173 252.357 55.9013 253.978 50.952C255.685 45.9173 258.245 42.0773 261.658 39.432C265.157 36.7867 269.551 35.464 274.842 35.464C280.901 35.464 286.063 36.7867 290.33 39.432C294.682 42.0773 298.01 45.9173 300.314 50.952C302.618 55.9013 303.77 61.9173 303.77 69C303.77 75.9973 302.618 82.0133 300.314 87.048C298.01 92.0827 294.682 95.9227 290.33 98.568C286.063 101.213 280.901 102.536 274.842 102.536ZM268.698 81.288C270.831 81.288 272.709 80.776 274.33 79.752C275.951 78.6427 277.231 77.192 278.17 75.4C279.194 73.5227 279.706 71.3893 279.706 69C279.706 66.6107 279.237 64.52 278.298 62.728C277.359 60.8507 276.079 59.4 274.458 58.376C272.837 57.352 270.959 56.84 268.826 56.84C266.693 56.84 264.773 57.352 263.066 58.376C261.359 59.4 260.037 60.8507 259.098 62.728C258.159 64.52 257.69 66.6107 257.69 69C257.69 71.3893 258.159 73.5227 259.098 75.4C260.037 77.192 261.317 78.6427 262.938 79.752C264.645 80.776 266.565 81.288 268.698 81.288ZM345.031 102.536C338.034 102.536 331.804 101.128 326.343 98.312C320.882 95.4107 316.615 91.4427 313.543 86.408C310.471 81.288 308.935 75.4853 308.935 69C308.935 62.4293 310.471 56.6267 313.543 51.592C316.615 46.5573 320.839 42.632 326.215 39.816C331.591 36.9147 337.778 35.464 344.775 35.464C351.516 35.464 357.703 37.2133 363.335 40.712C368.967 44.2107 372.978 49.288 375.367 55.944L353.351 63.112C352.668 61.4053 351.388 59.9973 349.511 58.888C347.719 57.7787 345.714 57.224 343.495 57.224C341.362 57.224 339.484 57.736 337.863 58.76C336.242 59.6987 334.962 61.064 334.023 62.856C333.084 64.648 332.615 66.696 332.615 69C332.615 71.304 333.084 73.352 334.023 75.144C334.962 76.8507 336.284 78.216 337.991 79.24C339.698 80.264 341.618 80.776 343.751 80.776C345.884 80.776 347.847 80.2213 349.639 79.112C351.431 78.0027 352.711 76.5947 353.479 74.888L375.495 81.928C373.106 88.584 369.095 93.704 363.463 97.288C357.916 100.787 351.772 102.536 345.031 102.536ZM423.214 101L421.934 89.224V37H444.974V101H423.214ZM381.87 69.768V37H404.91V69.768H381.87ZM404.91 69.768C404.91 72.1573 405.166 74.1627 405.678 75.784C406.275 77.4053 407.086 78.6427 408.11 79.496C409.219 80.3493 410.585 80.8187 412.206 80.904C415.449 80.9893 417.881 80.2213 419.502 78.6C421.123 76.9787 421.934 74.4613 421.934 71.048H428.206C428.206 77.7893 427.182 83.5067 425.134 88.2C423.086 92.8933 420.313 96.4773 416.814 98.952C413.315 101.341 409.347 102.536 404.91 102.536C399.705 102.536 395.395 101.512 391.982 99.464C388.569 97.3307 386.009 94.1307 384.302 89.864C382.681 85.5973 381.87 80.1787 381.87 73.608V69.768H404.91ZM485.054 102.536C477.118 102.536 471.23 100.659 467.39 96.904C463.55 93.1493 461.63 87.7733 461.63 80.776V17.032H484.67V74.504C484.67 76.8933 485.011 78.6 485.694 79.624C486.377 80.648 487.529 81.16 489.15 81.16C489.833 81.16 490.686 80.9467 491.71 80.52C492.734 80.0933 493.545 79.6667 494.142 79.24L501.95 95.88C499.987 97.5867 497.427 99.1227 494.27 100.488C491.113 101.853 488.041 102.536 485.054 102.536ZM452.03 56.2V37H497.854V56.2H452.03Z" fill="#EEEEEC"/>
</g>
<defs>
<clipPath id="clip0_5_71">
<rect width="512" height="133" fill="white"/>
</clipPath>
</defs>
</svg>
